<?xml version="1.0" encoding="UTF-8"?>
<svg id="Layer_1" xmlns="http://www.w3.org/2000/svg" version="1.1" viewBox="0 0 33.8 34.2">
  <!-- Generator: Adobe Illustrator 29.5.1, SVG Export Plug-In . SVG Version: 2.1.0 Build 141)  -->
  <defs>
    <style>
      .st0 {
        fill: #fff;
      }

      .st1 {
        isolation: isolate;
      }
    </style>
  </defs>
  <g class="st1">
    <g id="image-logo">
      <path id="ovale-o" class="st0" d="M7.2,19.3c-1.8,0-1.8,2.5-1.8,3.7s0,3.5,1.8,3.5,1.8-2.3,1.8-3.5,0-3.7-1.8-3.7Z"/>
      <path id="carre-osm" class="st0" d="M0,0v34.2h33.8V0H0ZM7.2,26.8c-2.4,0-4-1.7-4-3.9s1.6-3.9,4-3.9,4,1.7,4,3.9-1.6,3.9-4,3.9ZM19.5,17.9h-.3c-.2-4-2.8-4-3.8-3.8-1.2.3-1.8,1.3-1.8,2.5s.6,2,2.4,3.3c1.9,1.3,2.4,2.5,2.4,3.7,0,2.2-2.4,4.5-5.2,4.5l.5-.6c1.8,0,3-1.4,3-2.8s-.5-2.4-2.4-3.8c-1.7-1.2-2.4-2.2-2.4-3.4,0-1.7,1.2-3.4,3.4-4,1.5-.4,3.5-.2,5,.6-.2.6-.7,3-.8,3.6h0s0,.2,0,.2ZM30.7,19.5c-.7,0-1,0-1,.9v5c0,.9.3.9,1,.9v.3h-3.9v-.3c.7,0,.9,0,.9-.9v-4.8l-2.6,6h-.6l-2.4-5.9v4.4c0,.8,0,1.2,1,1.2v.3h-2.7v-.3c.5,0,.9-.1.9-1.4v-4.7c0-.7-.3-.8-.9-.8v-.3h3.1l1.9,4.6,2-4.6h3.2v.3h0s.1.1.1.1Z"/>
    </g>
  </g>
</svg>