<?xml version="1.0" encoding="UTF-8"?>
<svg xmlns="http://www.w3.org/2000/svg" version="1.1" viewBox="0 0 242.58 46">
  <!-- Generator: Adobe Illustrator 29.4.0, SVG Export Plug-In . SVG Version: 2.1.0 Build 152)  -->
  <defs>
    <style>
      .st0 {
        fill: #111;
      }

      .st1 {
        isolation: isolate;
      }

      .st2 {
        fill: #330072;
      }

      .st3 {
        mix-blend-mode: multiply;
      }

      .st4 {
        fill: none;
        stroke: #111;
      }
    </style>
  </defs>
  <g class="st1">
    <g id="Layer_1">
      <g class="st3">
        <path class="st0" d="M121.38,25.57c.17-.06.2-.17.2-.22,0-.09-.05-.15-.08-.19,0,0-.39-.53-.39-.53h0s0,0,0,0c0,0-.01-.02-.02-.03-.04-.04-.1-.11-.19-.11-.08,0-.14.04-.18.06,0,0,0,0-.01,0h-.02s-1.94,1.37-1.94,1.37h-.01s-.03.03-.04.05c-.04.03-.1.08-.1.17,0,.08.05.14.09.19h0s.12.18.12.18c.02.03.1.15.22.15.07,0,.14-.02.2-.06h-.01s2.19-1.02,2.18-1.02"/>
      </g>
      <g class="st3">
        <path class="st0" d="M59.79,34.69h-.7v-6.35h.61c1.51,0,2.28.47,2.28,3.05,0,2.04-.37,3.3-2.19,3.3ZM59.71,27.24h-1.68c-.18,0-.29.11-.29.27v8.01c0,.17.11.27.29.27h1.54c2.71,0,3.87-1.3,3.87-4.35,0-3.88-1.92-4.2-3.72-4.2Z"/>
      </g>
      <g class="st3">
        <path class="st0" d="M69.87,28.34c.13,0,.25,0,.32-.19l.19-.51s.01-.03.02-.05c.02-.06.03-.11.03-.16,0-.09-.05-.2-.3-.2h-4.16c-.18,0-.29.11-.29.27v8.01c0,.16.11.27.29.27h4.11c.16,0,.31-.03.31-.29v-.55c0-.16-.11-.26-.28-.26h-3.08v-2.81h2.49c.18,0,.3-.05.3-.28v-.54c0-.23-.12-.28-.3-.28h-2.49v-2.44h2.84Z"/>
      </g>
      <g class="st3">
        <path class="st0" d="M83.39,27.24h-.87c-.17,0-.21.07-.26.18v.02s-1.58,4.19-1.58,4.19c-.03.08-.05.18-.07.28-.03-.1-.05-.2-.08-.28l-1.58-4.18v-.03c-.05-.1-.09-.18-.26-.18h-.87c-.18,0-.29.11-.29.27,0,0-.51,8-.51,8,0,.17.11.28.29.28h.77c.18,0,.29-.1.29-.27,0,0,.15-4.71.19-5.94l1.49,4.05c.06.16.14.22.32.22h.4c.18,0,.25-.06.31-.2,0,0,1.27-3.33,1.56-4.07.04,1.21.2,5.95.2,5.95,0,.16.11.26.29.26h.77c.18,0,.29-.1.29-.27,0,0-.52-8.02-.52-8.01,0-.16-.11-.27-.29-.27"/>
      </g>
      <g class="st3">
        <path class="st0" d="M89.35,28.14c1.22,0,1.69.95,1.69,3.37s-.46,3.39-1.69,3.39c-1.41,0-1.69-1.3-1.69-3.39,0-2.43.47-3.37,1.69-3.37ZM89.35,27.07c-2.06,0-3.14,1.53-3.14,4.44s1.09,4.45,3.14,4.45,3.15-1.54,3.15-4.45-1.12-4.44-3.15-4.44Z"/>
      </g>
      <g class="st3">
        <path class="st0" d="M100.14,27.24h-.69c-.18,0-.29.11-.29.27v5.53c-.11-.22-2.94-5.62-2.94-5.62-.06-.13-.16-.18-.31-.18h-.91c-.17,0-.29.11-.29.27v8.01c0,.17.11.27.29.27h.7c.18,0,.29-.1.29-.27v-5.91s0-.03,0-.04c0,.02.01.03.02.05l3.07,5.99c.09.13.18.19.32.19h.75c.17,0,.29-.11.29-.27v-8.01c0-.16-.11-.27-.29-.27"/>
      </g>
      <g class="st3">
        <path class="st0" d="M107.86,27.24h-5.24c-.23,0-.31.15-.31.29v.54c0,.17.11.27.29.27h1.87v7.18c0,.17.11.27.29.27h.78c.18,0,.29-.1.29-.27v-7.18h1.76c.16,0,.28-.08.33-.21l.19-.46h0s0-.02,0-.02c0-.01.01-.03.02-.05.02-.03.04-.08.04-.13s-.02-.22-.29-.22"/>
      </g>
      <g class="st3">
        <path class="st0" d="M113.68,29.6c0,1.14-.7,1.37-1.76,1.37h-.74v-2.63h.9c.87,0,1.6.1,1.6,1.26ZM115.47,35.42h0s-2.14-3.56-2.14-3.56c.82-.29,1.71-1.03,1.71-2.29,0-2.33-1.92-2.33-2.84-2.33h-2.07c-.18,0-.29.11-.29.27v8.01c0,.17.11.27.29.27h.77c.18,0,.29-.1.29-.27v-3.51h.76l2.17,3.79c.04.08.13.19.32.16,0,0,.85-.15.85-.15.19-.03.25-.13.25-.21,0-.06-.03-.13-.06-.19"/>
      </g>
      <g class="st3">
        <path class="st0" d="M121.66,28.34c.13,0,.25,0,.32-.19l.19-.51s.01-.03.01-.05c.02-.06.03-.11.03-.16,0-.09-.05-.2-.3-.2h-4.16c-.18,0-.29.11-.29.27v8.01c0,.16.11.27.29.27h4.11c.16,0,.31-.03.31-.29v-.55c0-.16-.11-.26-.28-.26h-3.08v-2.81h2.49c.18,0,.3-.05.3-.28v-.54c0-.23-.12-.28-.3-.28h-2.49v-2.44h2.84Z"/>
      </g>
      <g class="st3">
        <path class="st0" d="M128.21,32.22h-1.89l.77-2.51c.06-.19.12-.46.18-.71.04.17.08.32.13.5l.06.21s.59,1.95.75,2.52ZM130.72,35.44s-.02-.05-.03-.09c0,0-2.68-7.89-2.69-7.9-.08-.2-.18-.21-.32-.21h-.79c-.19,0-.26.04-.32.22l-2.67,7.89h0c-.04.08-.06.15-.07.21h0v.03c0,.2.21.2.31.2h.83c.12,0,.29-.02.36-.22,0,0,.54-1.83.65-2.25h2.55l.72,2.25c.07.2.24.22.36.22h.83c.1,0,.32,0,.32-.2v-.03s-.03-.09-.04-.13"/>
      </g>
      <g class="st3">
        <path class="st0" d="M137.41,34.69h-3.27v-7.18c0-.16-.11-.27-.29-.27h-.77c-.18,0-.29.11-.29.27v8.01c0,.17.11.27.29.27h4.03c.16,0,.27-.08.33-.21l.19-.46h0s0-.02,0-.02c0-.01,0-.03.02-.05.02-.03.04-.08.04-.13s-.02-.22-.29-.22"/>
      </g>
      <path class="st0" d="M60.49,14.52c1.22,0,1.69.95,1.69,3.38s-.46,3.39-1.69,3.39-1.69-.92-1.69-3.39.47-3.38,1.69-3.38ZM60.49,13.45c-2.06,0-3.14,1.54-3.14,4.44s1.09,4.45,3.14,4.45,3.15-1.54,3.15-4.45-1.12-4.44-3.15-4.44Z"/>
      <path class="st0" d="M69.69,15.98c0,1.14-.7,1.37-1.76,1.37h-.74v-2.63h.9c.87,0,1.6.1,1.6,1.25M71.48,21.79h0s-2.14-3.56-2.14-3.56c.82-.29,1.71-1.03,1.71-2.29,0-2.33-1.92-2.33-2.84-2.33h-2.07c-.18,0-.29.1-.29.27v8.01c0,.17.11.27.29.27h.77c.18,0,.29-.1.29-.27v-3.51h.77l2.16,3.79c.04.08.13.19.33.16l.84-.15c.19-.03.25-.12.25-.21,0-.06-.03-.13-.06-.19h0Z"/>
      <path class="st0" d="M76.24,22.35c1.17,0,2.26-.73,2.26-1.06,0-.11-.06-.19-.11-.25l-.28-.33h0s-.02-.03-.02-.03c-.05-.05-.11-.11-.19-.11-.07,0-.12.04-.27.14-.29.2-.82.57-1.35.57-1.18,0-1.77-1.21-1.77-3.58s.47-3.18,1.68-3.18c.54,0,1.06.37,1.35.57.14.1.2.14.26.14.12,0,.18-.09.23-.14l.28-.32c.05-.06.11-.14.11-.25,0-.33-1.1-1.06-2.26-1.06-2.06,0-3.11,1.47-3.11,4.37s1.1,4.53,3.19,4.53"/>
      <path class="st0" d="M80.82,22.17h.77c.18,0,.29-.1.29-.27v-3.62h3.18v3.62c0,.17.11.27.29.27h.77c.18,0,.29-.1.29-.27v-8.01c0-.17-.11-.27-.29-.27h-.77c-.18,0-.29.1-.29.27v3.29h-3.18v-3.29c0-.17-.11-.27-.29-.27h-.77c-.18,0-.29.1-.29.27v8.01c0,.17.11.27.29.27Z"/>
      <path class="st0" d="M89.45,22.17h4.12c.16,0,.31-.03.31-.29v-.54c0-.16-.11-.26-.29-.26h-3.08v-2.82h2.49c.18,0,.3-.05.3-.29v-.53c0-.23-.12-.29-.3-.29h-2.49v-2.44h2.84c.13,0,.25,0,.32-.19l.19-.51s0-.03.01-.04c.02-.06.03-.12.03-.16,0-.09-.05-.2-.3-.2h-4.16c-.18,0-.28.1-.28.27v8.01c0,.17.11.27.28.27"/>
      <path class="st0" d="M95.59,21.73s.04.02.08.04c.31.14,1.26.58,2.4.58,1.77,0,2.96-1.01,2.96-2.5,0-.81-.35-1.42-1.13-2-.36-.26-.78-.47-1.19-.67-.85-.41-1.58-.76-1.58-1.54,0-.95.9-1.06,1.29-1.06.51,0,1.08.14,1.64.41.08.05.17.07.24.07.15,0,.2-.11.23-.17,0-.02.02-.03.03-.06,0,0,.18-.41.18-.41h0s0-.02,0-.02c0-.01,0-.03.02-.05.02-.04.04-.08.04-.13,0-.09-.07-.19-.17-.24,0,0-.05-.03-.05-.03-.27-.13-1.09-.51-2.12-.51-1.38,0-2.78.79-2.78,2.29,0,1.4,1.16,1.98,2.18,2.48.88.44,1.72.86,1.72,1.73,0,.77-.56,1.26-1.46,1.26-.81,0-1.52-.31-1.86-.45-.04-.02-.08-.03-.1-.04h0c-.1-.04-.17-.07-.25-.07-.16,0-.22.14-.26.24l-.17.4h0s0,.02,0,.02c0,.01-.01.03-.02.05-.02.04-.04.08-.04.13,0,.11.07.21.19.25Z"/>
      <path class="st0" d="M102.6,14.72h1.87v7.18c0,.17.11.27.29.27h.78c.18,0,.28-.1.28-.27v-7.18h1.76c.15,0,.27-.08.33-.21l.19-.46h0s0-.02,0-.02c0-.02.01-.03.02-.05.02-.03.04-.08.04-.13s-.02-.22-.29-.22h-5.24c-.23,0-.31.15-.31.29v.54c0,.17.11.27.29.27"/>
      <path class="st0" d="M111.18,17.35v-2.63h.9c.88,0,1.6.1,1.6,1.26s-.71,1.37-1.76,1.37h-.74ZM110.12,22.17h.78c.18,0,.29-.1.29-.27v-3.51h.76l2.17,3.79c.04.08.13.18.32.16,0,0,.85-.14.85-.14.18-.03.25-.13.25-.21,0-.06-.03-.13-.06-.19h0s-2.15-3.56-2.15-3.56c.82-.29,1.71-1.03,1.71-2.29,0-2.33-1.92-2.33-2.84-2.33h-2.07c-.18,0-.29.1-.29.27v8.01c0,.17.11.27.29.27Z"/>
      <path class="st0" d="M117.76,22.17h4.11c.17,0,.32-.03.32-.29v-.54c0-.16-.11-.26-.29-.26h-3.08v-2.82h2.49c.18,0,.3-.05.3-.29v-.53c0-.23-.12-.29-.3-.29h-2.49v-2.44h2.84c.13,0,.25,0,.32-.19l.19-.51s0-.03.01-.04c.02-.06.03-.12.03-.16,0-.09-.05-.2-.3-.2h-4.15c-.18,0-.29.1-.29.27v8.01c0,.17.11.27.29.27"/>
      <g class="st3">
        <path class="st0" d="M134.4,19.85c0-.8-.35-1.43-1.13-2-.35-.27-.78-.47-1.19-.67-.85-.41-1.58-.76-1.58-1.54,0-.96.9-1.06,1.29-1.06.51,0,1.08.14,1.64.41.09.05.17.07.24.07.15,0,.2-.1.23-.17,0-.02.02-.03.03-.06,0,0,.18-.41.18-.41v-.02s.01-.03.02-.05c.02-.04.04-.08.04-.13,0-.09-.07-.19-.17-.25,0,0-.05-.02-.05-.02-.27-.13-1.1-.51-2.12-.51-1.38,0-2.78.79-2.78,2.29,0,1.4,1.16,1.97,2.18,2.49.88.44,1.72.86,1.72,1.73,0,.78-.56,1.26-1.46,1.26-.81,0-1.52-.31-1.86-.45-.04-.02-.07-.03-.1-.04-.09-.05-.17-.07-.24-.07-.17,0-.22.13-.26.23l-.17.4h0s0,.02,0,.02c0,.01-.01.03-.02.05-.02.04-.04.08-.04.13,0,.11.07.21.19.25.01,0,.04.02.08.03.31.14,1.25.58,2.4.58,1.77,0,2.96-1.01,2.96-2.5"/>
      </g>
      <g class="st3">
        <path class="st0" d="M142.05,13.73h-.01s-.78-.17-.78-.17h-.03s-.02,0-.04,0c-.02,0-.05,0-.08,0-.15,0-.21.13-.25.21v.02s-1.62,3.04-1.62,3.04c-.09.16-.18.34-.27.53-.03-.05-.05-.1-.08-.14-.06-.11-.12-.21-.15-.27l-1.68-3.17s0-.01,0-.01c-.04-.08-.1-.21-.25-.21-.04,0-.1,0-.16.02.01,0-.76.16-.76.16,0,0-.03,0-.03,0-.07.02-.23.06-.23.23,0,.07.03.13.06.18,0,0,2.4,4.13,2.58,4.43v3.32c0,.17.11.27.29.27h.77c.18,0,.29-.1.29-.27v-3.35l2.64-4.41c.03-.05.06-.12.06-.19,0-.12-.08-.2-.24-.24"/>
      </g>
      <g class="st3">
        <path class="st0" d="M149.42,21.92c0,.16.11.26.29.26h.78c.18,0,.29-.1.29-.27,0,0-.52-8.02-.52-8.01,0-.17-.11-.27-.29-.27h-.87c-.17,0-.21.07-.26.18v.02s-1.59,4.19-1.59,4.19c-.03.07-.05.18-.07.28-.03-.1-.05-.2-.08-.28l-1.58-4.18v-.03c-.05-.1-.1-.18-.26-.18h-.87c-.18,0-.29.1-.29.27,0,0-.51,8-.51,8,0,.18.11.28.29.28h.78c.18,0,.29-.1.29-.27,0,0,.15-4.71.19-5.94l1.49,4.05c.06.16.14.22.32.22h.4c.18,0,.25-.07.32-.2,0,0,1.27-3.33,1.56-4.07.04,1.21.2,5.95.2,5.95"/>
      </g>
      <g class="st3">
        <path class="st0" d="M157.24,15.98c0,1.32-.7,1.59-1.76,1.59h-.74v-2.85h.9c.88,0,1.6.09,1.6,1.25M155.76,13.63h-2.07c-.18,0-.29.1-.29.27v8.01c0,.16.11.27.29.27h.77c.18,0,.29-.1.29-.27v-3.23h.84c1.13,0,3.01-.35,3.01-2.72s-1.92-2.33-2.84-2.33"/>
      </g>
      <g class="st3">
        <path class="st0" d="M166.54,13.9c0-.16-.11-.27-.29-.27h-.77c-.18,0-.29.1-.29.27v3.29h-3.18v-3.29c0-.16-.11-.27-.29-.27h-.77c-.18,0-.29.1-.29.27v8.01c0,.17.11.27.29.27h.77c.18,0,.29-.1.29-.27v-3.62h3.18v3.62c0,.17.11.27.29.27h.77c.18,0,.29-.1.29-.27v-8.01Z"/>
      </g>
      <g class="st3">
        <path class="st0" d="M173.62,17.9c0,2.47-.46,3.39-1.69,3.39-1.41,0-1.69-1.3-1.69-3.39,0-2.43.48-3.37,1.69-3.37s1.69.95,1.69,3.37ZM171.94,13.46c-2.06,0-3.15,1.54-3.15,4.44s1.09,4.45,3.15,4.45,3.15-1.54,3.15-4.45-1.12-4.44-3.15-4.44Z"/>
      </g>
      <g class="st3">
        <path class="st0" d="M181.65,21.99c.08.14.18.19.32.19h.75c.17,0,.29-.11.29-.27v-8.01c0-.17-.11-.27-.29-.27h-.7c-.17,0-.29.1-.29.27v5.53l-2.94-5.62c-.06-.12-.16-.18-.31-.18h-.91c-.17,0-.29.11-.29.27v8.01c0,.17.11.27.29.27h.7c.18,0,.29-.1.29-.27v-5.91s0-.03,0-.04c0,.01.01.03.02.05l3.07,5.99h0Z"/>
      </g>
      <g class="st3">
        <path class="st0" d="M189.09,13.63h-3.53c-.18,0-.29.1-.29.27v.5c0,.17.11.27.29.27h1.09v6.48h-1.09c-.18,0-.29.1-.29.27v.5c0,.17.11.27.29.27h3.53c.18,0,.29-.1.29-.27v-.5c0-.16-.11-.27-.29-.27h-1.09v-6.48h1.09c.18,0,.29-.1.29-.27v-.5c0-.17-.11-.27-.29-.27Z"/>
      </g>
      <g class="st3">
        <path class="st0" d="M194.36,21.28c-1.16,0-1.68-1.05-1.68-3.41s.49-3.35,1.71-3.35,1.66,1.05,1.66,3.41-.5,3.35-1.69,3.35ZM197.08,23.03c.07,0,.12-.02.19-.06l.71-.44h.02s.1-.1.1-.22c0-.13-.1-.19-.29-.29l-.17-.09c-.3-.16-.77-.49-.99-.67.28-.37.87-1.26.87-3.37,0-2.95-1.03-4.44-3.07-4.44s-3.21,1.54-3.21,4.46,1.06,4.43,3.06,4.43c.44,0,.93-.11,1.37-.3.23.21,1.07.98,1.42.98"/>
      </g>
      <g class="st3">
        <path class="st0" d="M202.69,22.35c1.98,0,3.07-.9,3.07-2.53v-5.93c0-.17-.11-.27-.29-.27h-.78c-.18,0-.29.1-.29.27v5.91c0,1.03-.52,1.49-1.71,1.49-1.07,0-1.55-.46-1.55-1.49v-5.91c0-.17-.11-.27-.29-.27h-.78c-.18,0-.28.1-.28.27v5.93c0,1.68.97,2.53,2.89,2.53Z"/>
      </g>
      <g class="st3">
        <path class="st0" d="M212.79,21.08h-3.08v-2.81h2.49c.18,0,.3-.05.3-.29v-.53c0-.23-.12-.29-.3-.29h-2.49v-2.44h2.84c.12,0,.25,0,.32-.19l.19-.51s0-.03.01-.04c.02-.06.04-.12.04-.16,0-.09-.05-.2-.3-.2h-4.16c-.18,0-.29.1-.29.27v8.01c0,.17.11.27.29.27h4.11c.16,0,.31-.03.31-.3v-.54c0-.16-.11-.26-.29-.26Z"/>
      </g>
      <path class="st2" d="M9.99,26.17c-2.4,0-2.43,3.25-2.43,4.83s.03,4.57,2.43,4.57,2.43-2.94,2.43-4.57-.03-4.83-2.43-4.83Z"/>
      <path class="st2" d="M.1,0v46h46.1V0H.1ZM9.99,36.07c-3.21,0-5.46-2.24-5.46-5.2s2.25-5.2,5.46-5.2,5.45,2.23,5.45,5.2-2.25,5.2-5.45,5.2ZM26.75,24.04h-.36c-.28-5.34-3.84-5.4-5.13-5.06-1.57.41-2.4,1.81-2.4,3.37,0,1.37.79,2.74,3.25,4.49,2.54,1.8,3.26,3.34,3.26,5,0,2.97-3.32,6.07-7.13,6.07l.62-.79c2.43,0,4.1-1.83,4.1-3.74,0-1.59-.63-3.19-3.25-5.11-2.34-1.68-3.26-3.01-3.26-4.56,0-2.35,1.64-4.61,4.58-5.4,2.01-.54,4.77-.25,6.84.83-.27.81-.99,4.03-1.13,4.89h0ZM41.98,26.26c-.95.03-1.3.1-1.3,1.26v6.68c0,1.16.35,1.23,1.3,1.26v.35h-5.28v-.35c.94-.03,1.29-.1,1.29-1.26v-6.44l-3.52,8.04h-.8l-3.23-7.87v5.91c0,1.1.13,1.61,1.43,1.61v.35h-3.7v-.35c.75,0,1.18-.16,1.18-1.84v-6.26c0-.99-.41-1.08-1.18-1.11v-.34h4.24l2.53,6.19,2.69-6.19h4.33v.34h0Z"/>
      <line class="st4" x1="243.6" y1="8" x2="243.6" y2="38"/>
      <path class="st0" d="M291.8,33.77l4.78,2.13-6.57-5.04.29,2.69-2.31-1.8c1.03-1.35,1.65-3.04,1.65-4.89,0-4.39-3.48-7.95-7.77-7.95s-7.77,3.56-7.77,7.95,3.48,7.95,7.77,7.95c1.77,0,3.39-.61,4.7-1.62l5.61,4.31-.38-3.73h0ZM281.87,32.5c-3.04,0-5.51-2.52-5.51-5.63s2.46-5.63,5.51-5.63,5.51,2.52,5.51,5.63c0,1.31-.44,2.52-1.19,3.48l-2.53-1.97h-3.36l4.35,3.34c-.82.49-1.77.78-2.79.78h0Z"/>
      <g class="st3">
        <path class="st0" d="M293.28,19.56l-1.19,6.54h1.3l.55-2.78h2.35l-.49,2.78h1.3l1.22-6.54h-1.3l-.52,2.51h-2.29l.41-2.51h-1.33Z"/>
      </g>
      <g class="st3">
        <path class="st0" d="M298.52,27.58h1.54l2.92-6.22h-1.45l-1.21,3.23-.46-3.26h-1.36l.96,4.44-.92,1.81Z"/>
      </g>
      <g class="st3">
        <path class="st0" d="M305.3,24.83c-.64.62-1.54.09-1.22-.95.32-1.04.61-1.75,1.94-1.42,0,0-.09,1.75-.72,2.37ZM307.89,19.39h-1.28l-.43,2.07c-1.52-.72-2.6.62-2.6.62,0,0-1.67,2.24-.43,3.68,1.09,1.26,2.43-.38,2.43-.38l.06.77h1.19c-.17-.26,1.07-6.75,1.07-6.75"/>
      </g>
      <g class="st3">
        <path class="st0" d="M307.76,26.1h1.3l.38-1.98s.14-1.75,1.62-1.57l.2-1.33s-1.33,0-1.71,1.1c-.38,1.1-.11.03-.11.03l.14-1.01h-1.07s-.12,1.48-.75,4.77"/>
      </g>
      <g class="st3">
        <path class="st0" d="M314.45,23.55c-.11.59-.26,1.15-.78,1.51-.2.12-.4.12-.64.09-.55-.15-.61-.8-.55-1.27.09-.56.23-1.1.69-1.45.06-.03.14-.09.2-.12.14-.06.32-.07.49-.03.58.12.67.77.58,1.27ZM315.81,23.02c-.03-.15-.06-.32-.09-.47-.23-.77-.99-1.28-1.77-1.3-.93-.03-1.82.42-2.35,1.25-.55.89-.72,1.99-.14,2.9.23.38.58.62,1.01.71.78.18,1.54.09,2.2-.42.52-.42.9-.95,1.01-1.62.09-.36.17-.68.12-1.04"/>
      </g>
      <g class="st3">
        <path class="st0" d="M304.89,32.73c-.47.44-1.16.5-1.68.12-.26-.2-.41-.47-.47-.77-.29-1.25.09-2.61,1.16-3.35.35-.2.69-.24,1.07-.15.43.12.76.47.84.92.26,1.15-.07,2.41-.93,3.23M305.9,33.11c1.3-1.04,1.85-3.02.95-4.56-.69-1.21-2.2-1.36-3.39-.89-.64.27-1.16.74-1.53,1.33-.67,1.12-.9,2.49-.43,3.7.32.83,1.13,1.42,2.03,1.51.84.06,1.65-.12,2.49-.12h.96c.06-.36.14-.68.2-1.04-.43-.06-.84.12-1.27.06"/>
      </g>
      <g class="st3">
        <path class="st0" d="M309.12,34.21c-.38.04-.75-.06-1.01-.36-.2-.2-.26-.5-.26-.77-.06-1.27.38-2.49.55-3.73h1.28c-.14,1.04-.41,2.07-.52,3.14-.03.24.09.53.32.59.23.09.46.03.67-.15.35-.3.52-.71.61-1.15.18-.83.35-1.63.46-2.43h1.28c-.2,1.6-.61,3.17-.81,4.77h-1.13c.03-.24.03-.47.09-.74,0-.03-.03-.06-.06-.03-.38.5-.87.8-1.45.86"/>
      </g>
      <g class="st3">
        <path class="st0" d="M314.62,30.42c.29-.21.64-.27.95-.09.23.18.34.41.29.71-.06.15-.23.14-.35.15-.49.03-.93.18-1.42.18-.03,0-.03-.06-.03-.09.11-.32.26-.62.55-.86M315.4,32.05c.52-.09,1.04-.15,1.56-.24.23-.89.09-2.13-.9-2.46-.96-.27-1.97.03-2.61.8-.72.92-1.07,2.22-.4,3.26.73,1.16,2.29.95,3.33.44,0-.32-.06-.65-.09-.98-.55.3-1.19.42-1.77.24-.32-.12-.58-.47-.55-.83.46-.15.92-.15,1.42-.24"/>
      </g>
      <g class="st3">
        <path class="st0" d="M319.25,33.3c-.2,0-.43-.03-.61-.15.2-.89.14-1.98.9-2.63.23-.18.55-.3.81-.15.14.09.26.24.32.42.2,1.03-.31,2.52-1.42,2.52M321.89,29.96c-.14-.3-.41-.53-.72-.65-.7-.21-1.51.06-1.91.65.03-.86.35-1.68.41-2.55h-1.28c-.38,2.17-.78,4.35-1.16,6.52.61.27,1.28.37,1.94.32.93-.06,1.83-.47,2.35-1.3.55-.92.78-2.01.38-2.99"/>
      </g>
      <g class="st3">
        <path class="st0" d="M315.89,28.71s-.03.09-.06.09c-.32.03-.61,0-.93,0,.29-.48.55-.95.87-1.42.4.03.81,0,1.22.03-.35.44-.72.86-1.1,1.3"/>
      </g>
      <g class="st3">
        <path class="st0" d="M324.41,30.48c.29-.21.64-.27.96-.09.23.18.35.41.29.71-.06.15-.23.14-.35.15-.49.03-.93.18-1.42.18-.03,0-.03-.06-.03-.09.12-.32.26-.62.55-.86M325.19,32.11c.52-.09,1.04-.15,1.56-.24.23-.89.09-2.13-.9-2.46-.95-.27-1.97.03-2.61.8-.72.92-1.07,2.22-.41,3.26.72,1.15,2.29.95,3.33.44,0-.32-.06-.65-.09-.98-.55.3-1.19.41-1.77.24-.32-.12-.58-.48-.55-.83.47-.15.93-.15,1.42-.24Z"/>
      </g>
      <g class="st3">
        <path class="st0" d="M328.84,34.21c-.81-.04-1.45-.62-1.62-1.42-.17-1.01.14-2.01.87-2.69.81-.74,2-1.04,3.01-.62-.11.33-.2.68-.32,1.01-.64-.27-1.39-.12-1.82.44-.49.62-.69,1.75.12,2.19.09.03.17.03.26.06.38.03.72-.06,1.07-.18.03.32-.06.65.03.98-.49.24-1.05.26-1.59.24"/>
      </g>
      <path class="st0" d="M277.32,9.32c0,.93-.64,1.57-1.67,1.57h-.73v1.89h-.78v-5.05h1.52c1.03,0,1.68.65,1.68,1.59h0ZM274.92,8.49v1.64h.73c.52,0,.87-.3.87-.81s-.34-.83-.87-.83h-.73Z"/>
      <path class="st0" d="M279.8,9.87c-.28,0-.51.06-.71.25-.19.16-.3.4-.31.77v1.9h-.75v-3.66h.66l.06.62c.12-.33.44-.66,1.05-.66v.77h0Z"/>
      <path class="st0" d="M283.53,10.93v.3h-2.6c.04.58.43.96.99.96.42,0,.73-.18.86-.52h.73c-.22.75-.77,1.2-1.61,1.2-1.02,0-1.74-.75-1.74-1.9s.69-1.91,1.74-1.91c.94,0,1.64.62,1.64,1.87ZM280.93,10.62h1.84c0-.55-.36-.9-.89-.9s-.91.38-.95.9ZM282.13,8.64h-.67l.77-1.14h.95l-1.05,1.14Z"/>
      <path class="st0" d="M286.65,10.21h-.75c0-.32-.17-.5-.5-.5s-.47.19-.47.43c0,.26.14.37.65.48.86.18,1.16.5,1.16,1.1,0,.76-.58,1.15-1.3,1.15-.86,0-1.33-.47-1.35-1.18h.76c0,.34.23.53.61.53.35,0,.54-.17.54-.43,0-.27-.14-.4-.7-.53-.76-.16-1.11-.46-1.11-1.06s.43-1.15,1.24-1.15c.72,0,1.21.46,1.24,1.16h0Z"/>
      <path class="st0" d="M290.64,10.93v.3h-2.6c.04.58.43.96.99.96.42,0,.73-.18.86-.52h.73c-.22.75-.77,1.2-1.61,1.2-1.02,0-1.74-.75-1.74-1.9s.69-1.91,1.74-1.91c.94,0,1.64.62,1.64,1.87ZM288.04,10.62h1.84c0-.55-.36-.9-.89-.9s-.9.38-.95.9Z"/>
      <path class="st0" d="M294.3,10.42v2.37h-.76v-2.22c0-.5-.22-.76-.61-.76-.42,0-.73.35-.73,1.04v1.94h-.75v-3.66h.65l.05.49c.16-.31.49-.57.98-.57.76,0,1.16.56,1.16,1.37h0Z"/>
      <path class="st0" d="M296.23,9.13h.87v.71h-.87v1.73c-.01.39.09.56.48.56.19,0,.29-.02.4-.06v.68c-.11.04-.28.08-.55.08-.72,0-1.1-.32-1.09-1.1v-1.9s-.62,0-.62,0v-.71h.63v-.89h.76v.89s-.01,0-.01,0Z"/>
      <path class="st0" d="M300.95,10.93v.3h-2.6c.04.58.43.96.99.96.42,0,.73-.18.86-.52h.73c-.22.75-.77,1.2-1.61,1.2-1.02,0-1.74-.75-1.74-1.9s.69-1.91,1.74-1.91c.94,0,1.64.62,1.64,1.87ZM298.35,10.62h1.84c0-.55-.36-.9-.89-.9s-.9.38-.95.9ZM299.55,8.64h-.67l.77-1.14h.95l-1.05,1.14Z"/>
      <path class="st0" d="M307.02,10.96c0,1.07-.68,1.91-1.67,1.91-.56,0-.95-.25-1.13-.53v2.01h-.76v-5.21h.66l.05.52c.2-.31.55-.6,1.18-.6.99,0,1.67.83,1.67,1.91h0ZM304.21,10.93v.04c0,.74.5,1.17,1.01,1.17.59,0,1.03-.48,1.03-1.19s-.43-1.18-1.02-1.18c-.52,0-1.02.44-1.02,1.16Z"/>
      <path class="st0" d="M310.38,10.38v2.4h-.67l-.04-.48c-.19.32-.54.56-1.05.56-.63,0-1.06-.39-1.06-1.04s.45-.96,1.05-1.07l1.02-.19v-.17c0-.45-.2-.66-.58-.66-.34,0-.64.2-.64.58h-.73c.03-.72.56-1.26,1.37-1.26s1.34.45,1.34,1.33h0ZM308.77,11.32c-.25.06-.45.17-.45.46,0,.25.18.41.49.41.26,0,.51-.12.65-.35.1-.14.17-.36.17-.58v-.13l-.86.19h0Z"/>
      <path class="st0" d="M313.14,9.87c-.28,0-.51.06-.72.25-.18.16-.3.4-.31.77v1.9h-.75v-3.66h.66l.06.62c.12-.33.44-.66,1.05-.66v.77h0Z"/>
    </g>
  </g>
</svg>