<?xml version="1.0" encoding="UTF-8"?>
<svg xmlns="http://www.w3.org/2000/svg" version="1.1" viewBox="0 0 156 34.2">
  <defs>
    <style>
      .cls-1 {
        isolation: isolate;
      }

      .cls-2 {
        fill: #111;
      }

      .cls-2, .cls-3 {
        stroke-width: 0px;
      }

      .cls-4 {
        mix-blend-mode: multiply;
      }

      .cls-3 {
        fill: #330072;
      }
    </style>
  </defs>
  <g class="cls-1">
    <g id="orchestre">
      <path id="o-orchestreorchestre" class="cls-2" d="M44.2,7.4c.9,0,1.2.9,1.2,3.4s-.3,3.4-1.2,3.4-1.2-.9-1.2-3.4.3-3.4,1.2-3.4ZM44.2,6.3c-1.5,0-2.3,1.5-2.3,4.4s.8,4.5,2.3,4.5,2.3-1.5,2.3-4.5-.8-4.4-2.3-4.4Z"/>
      <path id="r-orchestre" class="cls-2" d="M51,8.9c0,1.1-.5,1.4-1.3,1.4h-.5v-2.6h.7c.6,0,1.2.1,1.2,1.2M52.3,14.7h0l-1.6-3.6c.6-.3,1.3-1,1.3-2.3,0-2.3-1.4-2.3-2.1-2.3h-1.5c-.1,0-.2.1-.2.3v8c0,.2,0,.3.2.3h.6c.1,0,.2-.1.2-.3v-3.5h.6l1.6,3.8c0,0,0,.2.2.2h.6c.1-.2.2-.3.2-.4s0-.1,0-.2h0Z"/>
      <path id="c-orchestre" class="cls-2" d="M55.8,15.2c.9,0,1.7-.7,1.7-1.1s0-.2,0-.2l-.2-.3h0c0,0,0-.1-.1-.1s0,0-.2.1c-.2.2-.6.6-1,.6-.9,0-1.3-1.2-1.3-3.6s.3-3.2,1.2-3.2.8.4,1,.6c.1.1.1.1.2.1,0,0,.1,0,.2-.1l.2-.3c0,0,0-.1,0-.2,0-.3-.8-1.1-1.7-1.1-1.5,0-2.3,1.5-2.3,4.4s.8,4.5,2.3,4.5"/>
      <path id="h-orchestre" class="cls-2" d="M59.1,15.1h.6c.1,0,.2-.1.2-.3v-3.6h2.3v3.6c0,.2,0,.3.2.3h.6c.1,0,.2-.1.2-.3V6.8c0-.2,0-.3-.2-.3h-.6c-.1,0-.2.1-.2.3v3.3h-2.3v-3.3c0-.2,0-.3-.2-.3h-.6c-.1,0-.2.1-.2.3v8c0,.2,0,.3.2.3Z"/>
      <path id="e-orchestre" class="cls-2" d="M65.5,15.1h3c.1,0,.2,0,.2-.3v-.5c0-.2,0-.3-.2-.3h-2.3v-2.8h1.8c.1,0,.2,0,.2-.3v-.5c0-.2,0-.3-.2-.3h-1.8v-2.4h2.1c0,0,.2,0,.2-.2v-.5c.1,0,.1,0,.1,0,0,0,0-.1,0-.2,0,0,0-.2-.2-.2h-3c-.1,0-.2.1-.2.3v8c0,.2,0,.3.2.3"/>
      <path id="s-orchestre" class="cls-2" d="M70,14.6h0c.2.2.9.6,1.8.6,1.3,0,2.2-1,2.2-2.5s-.3-1.4-.8-2c-.3-.3-.6-.5-.9-.7-.6-.4-1.2-.8-1.2-1.5s.7-1.1.9-1.1.8.1,1.2.4c0,0,.1,0,.2,0,.1,0,.1-.1.2-.2,0,0,0,0,0,0v-.4h.1s0,0,0,0c0,0,0,0,0-.1,0,0,0-.2-.1-.2h0c-.2-.2-.8-.5-1.6-.5s-2,.8-2,2.3.8,2,1.6,2.5c.6.4,1.3.9,1.3,1.7s-.4,1.3-1.1,1.3-1.1-.3-1.4-.5c0,0,0,0,0,0h0c0,0-.1,0-.2,0-.1,0-.2.1-.2.2v.4h-.1s0,0,0,0c0,0,0,0,0,.1,0,.1,0,.2.1.2h0Z"/>
      <path id="t-orchestre" class="cls-2" d="M75.1,7.6h1.4v7.2c0,.2,0,.3.2.3h.6c.1,0,.2-.1.2-.3v-7.2h1.3c.1,0,.2,0,.2-.2v-.5h.1s0,0,0,0c0,0,0,0,0-.1s0-.2-.2-.2h-3.8c-.2,0-.2.1-.2.3v.5c0,.2,0,.3.2.3"/>
      <path id="r-orchestre-2" data-name="r-orchestre" class="cls-2" d="M81.4,10.2v-2.6h.7c.6,0,1.2.1,1.2,1.3s-.5,1.4-1.3,1.4h-.5ZM80.6,15.1h.6c.1,0,.2-.1.2-.3v-3.5h.6l1.6,3.8c0,0,0,.2.2.2h.6c.1-.2.2-.3.2-.3s0-.1,0-.2h0l-1.6-3.6c.6-.3,1.3-1,1.3-2.3,0-2.3-1.4-2.3-2.1-2.3h-1.5c-.1,0-.2.1-.2.3v8c0,.2,0,.3.2.3h0Z"/>
      <path id="e-orchestre-2" data-name="e-orchestre" class="cls-2" d="M86.2,15.1h3c.1,0,.2,0,.2-.3v-.5c0-.2,0-.3-.2-.3h-2.3v-2.8h1.8c.1,0,.2,0,.2-.3v-.5c0-.2,0-.3-.2-.3h-1.8v-2.4h2.1c0,0,.2,0,.2-.2v-.5c.1,0,.1,0,.1,0,0,0,0-.1,0-.2,0,0,0-.2-.2-.2h-3c-.1,0-.2.1-.2.3v8c0,.2,0,.3.2.3"/>
    </g>
    <g id="symphonique">
      <g id="s-symphonique" class="cls-4">
        <path class="cls-2" d="M98.4,12.7c0-.8-.3-1.4-.8-2-.3-.3-.6-.5-.9-.7-.6-.4-1.2-.8-1.2-1.5s.7-1.1.9-1.1.8.1,1.2.4c0,0,.1,0,.2,0,.1,0,.1-.1.2-.2,0,0,0,0,0,0v-.4c.1,0,.1,0,.1,0,0,0,0,0,0,0,0,0,0,0,0-.1,0,0,0-.2-.1-.2h0c-.2-.2-.8-.5-1.6-.5s-2,.8-2,2.3.8,2,1.6,2.5c.6.4,1.3.9,1.3,1.7s-.4,1.3-1.1,1.3-1.1-.3-1.4-.5c0,0,0,0,0,0,0,0-.1,0-.2,0-.1,0-.2.1-.2.2v.4h-.1s0,0,0,0c0,0,0,0,0,.1,0,.1,0,.2.1.2,0,0,0,0,0,0,.2.1.9.6,1.8.6,1.3,0,2.2-1,2.2-2.5"/>
      </g>
      <g id="y-symphonique" class="cls-4">
        <path class="cls-2" d="M104,6.6h0l-.6-.2h-.1c-.1,0-.2.1-.2.2h0s-1.2,3.1-1.2,3.1c0,.2-.1.3-.2.5,0,0,0-.1,0-.1,0-.1,0-.2-.1-.3l-1.2-3.2h0c0,0,0-.2-.2-.2s0,0-.1,0c0,0-.6.2-.6.2h0c0,0-.2,0-.2.2s0,.1,0,.2c0,0,1.8,4.1,1.9,4.4v3.3c0,.2,0,.3.2.3h.6c.1,0,.2-.1.2-.3v-3.4l1.9-4.4c0,0,0-.1,0-.2,0-.1,0-.2-.2-.2"/>
      </g>
      <g id="m-symphonique" class="cls-4">
        <path class="cls-2" d="M109.4,14.8c0,.2,0,.3.2.3h.6c.1,0,.2-.1.2-.3,0,0-.4-8-.4-8,0-.2,0-.3-.2-.3h-.6c-.1,0-.2,0-.2.2h0s-1.2,4.2-1.2,4.2c0,0,0,.2,0,.3,0-.1,0-.2,0-.3l-1.2-4.2h0c0-.1,0-.2-.2-.2h-.6c-.1,0-.2.1-.2.3l-.4,8c0,.2,0,.3.2.3h.6c.1,0,.2-.1.2-.3,0,0,.1-4.7.1-5.9l1.1,4c0,.2.1.2.2.2h.3c.1,0,.2,0,.2-.2,0,0,.9-3.3,1.1-4.1,0,1.2.1,5.9.1,5.9"/>
      </g>
      <g id="p-symphonique" class="cls-4">
        <path class="cls-2" d="M115.1,8.9c0,1.3-.5,1.6-1.3,1.6h-.5v-2.9h.7c.6,0,1.2,0,1.2,1.2M114,6.5h-1.5c-.1,0-.2.1-.2.3v8c0,.2,0,.3.2.3h.6c.1,0,.2-.1.2-.3v-3.2h.6c.8,0,2.2-.4,2.2-2.7s-1.4-2.3-2.1-2.3"/>
      </g>
      <g id="h-symphonique" class="cls-4">
        <path class="cls-2" d="M121.9,6.8c0-.2,0-.3-.2-.3h-.6c-.1,0-.2.1-.2.3v3.3h-2.3v-3.3c0-.2,0-.3-.2-.3h-.6c-.1,0-.2.1-.2.3v8c0,.2,0,.3.2.3h.6c.1,0,.2-.1.2-.3v-3.6h2.3v3.6c0,.2,0,.3.2.3h.6c.1,0,.2-.1.2-.3V6.8Z"/>
      </g>
      <g id="o-symphonique" class="cls-4">
        <path class="cls-2" d="M127.1,10.8c0,2.5-.3,3.4-1.2,3.4s-1.2-1.3-1.2-3.4.4-3.4,1.2-3.4,1.2.9,1.2,3.4ZM125.9,6.3c-1.5,0-2.3,1.5-2.3,4.4s.8,4.4,2.3,4.4,2.3-1.5,2.3-4.5-.8-4.4-2.3-4.4Z"/>
      </g>
      <g id="n-symphonique" class="cls-4">
        <path class="cls-2" d="M133,14.9c0,.1.1.2.2.2h.5c.1,0,.2-.1.2-.3V6.8c0-.2,0-.3-.2-.3h-.5c-.1,0-.2.1-.2.3v5.5l-2.2-5.6c0-.1-.1-.2-.2-.2h-.7c-.1,0-.2.1-.2.3v8c0,.2,0,.3.2.3h.5c.1,0,.2-.1.2-.3v-5.9h0s0,0,0,0l2.2,6h0Z"/>
      </g>
      <g id="i-symphonique" class="cls-4">
        <path class="cls-2" d="M138.4,6.5h-2.6c-.1,0-.2.1-.2.3v.5c0,.2,0,.3.2.3h.8v6.5h-.8c-.1,0-.2.1-.2.3v.5c0,.2,0,.3.2.3h2.6c.1,0,.2-.1.2-.3v-.5c0-.2,0-.3-.2-.3h-.8v-6.5h.8c.1,0,.2-.1.2-.3v-.5c0-.2,0-.3-.2-.3Z"/>
      </g>
      <g id="q-symphonique" class="cls-4">
        <path class="cls-2" d="M142.3,14.2c-.8,0-1.2-1-1.2-3.4s.4-3.4,1.3-3.4,1.2,1.1,1.2,3.4-.4,3.4-1.2,3.4h0ZM144.3,15.9c0,0,0,0,.1,0l.5-.4h0s0-.1,0-.2,0-.2-.2-.3h-.1c-.2-.2-.6-.6-.7-.8.2-.4.6-1.3.6-3.4s-.8-4.4-2.2-4.4-2.4,1.5-2.4,4.5.8,4.4,2.2,4.4.7-.1,1-.3c.2.2.8,1,1,1"/>
      </g>
      <g id="u-symphonique" class="cls-4">
        <path class="cls-2" d="M148.4,15.2c1.5,0,2.2-.9,2.2-2.5v-5.9c0-.2,0-.3-.2-.3h-.6c-.1,0-.2.1-.2.3v5.9c0,1-.4,1.5-1.3,1.5s-1.1-.5-1.1-1.5v-5.9c0-.2,0-.3-.2-.3h-.6c-.1,0-.2.1-.2.3v5.9c0,1.7.7,2.5,2.1,2.5h0Z"/>
      </g>
      <g id="e-symphonique" class="cls-4">
        <path class="cls-2" d="M155.8,14h-2.3v-2.8h1.8c.1,0,.2,0,.2-.3v-.5c0-.2,0-.3-.2-.3h-1.8v-2.4h2.1c0,0,.2,0,.2-.2v-.5c.1,0,.1,0,.1,0,0,0,0-.1,0-.2,0,0,0-.2-.2-.2h-3c-.1,0-.2.1-.2.3v8c0,.2,0,.3.2.3h3c.1,0,.2,0,.2-.3v-.5c0-.2,0-.3-.2-.3h0Z"/>
      </g>
    </g>
    <g id="de">
      <g id="d-de" class="cls-4">
        <path class="cls-2" d="M43.7,27.6h-.5v-6.4h.4c1.1,0,1.7.5,1.7,3s-.3,3.3-1.6,3.3ZM43.7,20.1h-1.2c-.1,0-.2.1-.2.3v8c0,.2,0,.3.2.3h1.1c2,0,2.8-1.3,2.8-4.4s-1.4-4.2-2.7-4.2h0Z"/>
      </g>
      <g id="e-de" class="cls-4">
        <path class="cls-2" d="M51.1,21.2c0,0,.2,0,.2-.2v-.5c.1,0,.1,0,.2,0,0,0,0-.1,0-.2,0,0,0-.2-.2-.2h-3c-.1,0-.2.1-.2.3v8c0,.2,0,.3.2.3h3c.1,0,.2,0,.2-.3v-.5c0-.2,0-.3-.2-.3h-2.3v-2.8h1.8c.1,0,.2,0,.2-.3v-.5c0-.2,0-.3-.2-.3h-1.8v-2.4h2.1Z"/>
      </g>
    </g>
    <g id="montreal">
      <g id="accent-montreal" class="cls-4">
        <path class="cls-2" d="M88.8,18.5c.1,0,.1-.2.1-.2,0,0,0-.1,0-.2l-.3-.5h0s0,0,0,0c0,0,0-.1-.1-.1s-.1,0-.1,0h0l-1.4,1.4h0s0,0,0,0c0,0,0,0,0,.2s0,.1,0,.2h0v.2c.1,0,.2.1.2.1s.1,0,.1,0h0s1.6-1,1.6-1"/>
      </g>
      <g id="m-montreal" class="cls-4">
        <path class="cls-2" d="M61,20.1h-.6c-.1,0-.2,0-.2.2h0s-1.2,4.2-1.2,4.2c0,0,0,.2,0,.3,0-.1,0-.2,0-.3l-1.2-4.2h0c0-.1,0-.2-.2-.2h-.6c-.1,0-.2.1-.2.3l-.4,8c0,.2,0,.3.2.3h.6c.1,0,.2,0,.2-.3,0,0,.1-4.7.1-5.9l1.1,4.1c0,.2.1.2.2.2h.3c.1,0,.2,0,.2-.2,0,0,.9-3.3,1.1-4.1,0,1.2.1,6,.1,6,0,.2,0,.3.2.3h.6c.1,0,.2,0,.2-.3,0,0-.4-8-.4-8,0-.2,0-.3-.2-.3"/>
      </g>
      <g id="o-montreal" class="cls-4">
        <path class="cls-2" d="M65.4,21c.9,0,1.2,1,1.2,3.4s-.3,3.4-1.2,3.4-1.2-1.3-1.2-3.4.3-3.4,1.2-3.4ZM65.4,20c-1.5,0-2.3,1.5-2.3,4.4s.8,4.4,2.3,4.4,2.3-1.5,2.3-4.5-.8-4.4-2.3-4.4Z"/>
      </g>
      <g id="n-montreal" class="cls-4">
        <path class="cls-2" d="M73.3,20.1h-.5c-.1,0-.2.1-.2.3v5.5c0-.2-2.2-5.6-2.2-5.6,0-.1-.1-.2-.2-.2h-.7c-.1,0-.2.1-.2.3v8c0,.2,0,.3.2.3h.5c.1,0,.2,0,.2-.3v-5.9h0s0,0,0,0l2.2,6c0,.1.1.2.2.2h.5c.1,0,.2-.1.2-.3v-8c0-.2,0-.3-.2-.3"/>
      </g>
      <g id="t-montreal" class="cls-4">
        <path class="cls-2" d="M78.9,20.1h-3.8c-.2,0-.2.1-.2.3v.5c0,.2,0,.3.2.3h1.4v7.2c0,.2,0,.3.2.3h.6c.1,0,.2,0,.2-.3v-7.2h1.3c.1,0,.2,0,.2-.2v-.5h.1s0,0,0,0c0,0,0,0,0-.1s0-.2-.2-.2"/>
      </g>
      <g id="r-montreal" class="cls-4">
        <path class="cls-2" d="M83.2,22.5c0,1.1-.5,1.4-1.3,1.4h-.5v-2.6h.7c.6,0,1.2.1,1.2,1.3ZM84.5,28.3h0l-1.6-3.6c.6-.3,1.3-1,1.3-2.3,0-2.3-1.4-2.3-2.1-2.3h-1.5c-.1,0-.2.1-.2.3v8c0,.2,0,.3.2.3h.6c.1,0,.2,0,.2-.3v-3.5h.6l1.6,3.8c0,0,0,.2.2.2l.6-.2c.1,0,.2-.1.2-.2s0-.1,0-.2"/>
      </g>
      <g id="e-montreal" class="cls-4">
        <path class="cls-2" d="M89.1,21.2c0,0,.2,0,.2-.2v-.5c.1,0,.1,0,.1,0,0,0,0-.1,0-.2,0,0,0-.2-.2-.2h-3c-.1,0-.2.1-.2.3v8c0,.2,0,.3.2.3h3c.1,0,.2,0,.2-.3v-.5c0-.2,0-.3-.2-.3h-2.3v-2.8h1.8c.1,0,.2,0,.2-.3v-.5c0-.2,0-.3-.2-.3h-1.8v-2.4h2.1Z"/>
      </g>
      <g id="a-montreal" class="cls-4">
        <path class="cls-2" d="M93.8,25.1h-1.4l.6-2.5c0-.2,0-.5.1-.7,0,.2,0,.3,0,.5v.2s.5,2,.6,2.5h0ZM95.7,28.3s0,0,0,0c0,0-2-7.9-2-7.9,0-.2-.1-.2-.2-.2h-.6c-.1,0-.2,0-.2.2l-2,7.9h0c0,0,0,.2,0,.2h0c0,.2.2.2.2.2h.6c0,0,.2,0,.3-.2,0,0,.4-1.8.5-2.2h1.9l.5,2.2c0,.2.2.2.3.2h.6c0,0,.2,0,.2-.2h0s0-.1,0-.2"/>
      </g>
      <g id="l-montreal" class="cls-4">
        <path class="cls-2" d="M100.6,27.6h-2.4v-7.2c0-.2,0-.3-.2-.3h-.6c-.1,0-.2.1-.2.3v8c0,.2,0,.3.2.3h3c.1,0,.2,0,.2-.2v-.5h.1s0,0,0,0c0,0,0,0,0-.1s0-.2-.2-.2"/>
      </g>
    </g>
    <g id="image-logo">
      <path id="ovale-o" class="cls-3" d="M7.2,19.3c-1.8,0-1.8,2.5-1.8,3.7s0,3.5,1.8,3.5,1.8-2.3,1.8-3.5,0-3.7-1.8-3.7Z"/>
      <path id="carre-osm" class="cls-3" d="M0,0v34.2h33.8V0H0ZM7.2,26.8c-2.4,0-4-1.7-4-3.9s1.6-3.9,4-3.9,4,1.7,4,3.9-1.6,3.9-4,3.9ZM19.5,17.9h-.3c-.2-4-2.8-4-3.8-3.8-1.2.3-1.8,1.3-1.8,2.5s.6,2,2.4,3.3c1.9,1.3,2.4,2.5,2.4,3.7,0,2.2-2.4,4.5-5.2,4.5l.5-.6c1.8,0,3-1.4,3-2.8s-.5-2.4-2.4-3.8c-1.7-1.2-2.4-2.2-2.4-3.4,0-1.7,1.2-3.4,3.4-4,1.5-.4,3.5-.2,5,.6-.2.6-.7,3-.8,3.6h0ZM30.7,19.5c-.7,0-1,0-1,.9v5c0,.9.3.9,1,.9v.3h-3.9v-.3c.7,0,.9,0,.9-.9v-4.8l-2.6,6h-.6l-2.4-5.9v4.4c0,.8,0,1.2,1,1.2v.3h-2.7v-.3c.5,0,.9-.1.9-1.4v-4.7c0-.7-.3-.8-.9-.8v-.3h3.1l1.9,4.6,2-4.6h3.2v.3h0Z"/>
    </g>
  </g>
</svg>